/* XPM */
static char *result[] = {
/* columns rows colors chars-per-pixel */
"32 32 66 1 ",
"  c black",
". c #020202",
"X c #040404",
"o c gray2",
"O c #060606",
"+ c #090909",
"@ c gray4",
"# c #0B0B0B",
"$ c #0C0C0C",
"% c gray5",
"& c #0E0E0E",
"* c gray6",
"= c #101010",
"- c #111111",
"; c gray7",
": c #131313",
"> c gray8",
", c #151515",
"< c #161616",
"1 c gray9",
"2 c #181818",
"3 c #191919",
"4 c gray10",
"5 c #1B1B1B",
"6 c gray11",
"7 c #1D1D1D",
"8 c #1E1E1E",
"9 c gray12",
"0 c #202020",
"q c gray13",
"w c #222222",
"e c #232323",
"r c gray14",
"t c #252525",
"y c gray15",
"u c #272727",
"i c #282828",
"p c gray16",
"a c gray17",
"s c #2C2C2C",
"d c #2D2D2D",
"f c gray18",
"g c #2F2F2F",
"h c gray19",
"j c #313131",
"k c #323232",
"l c gray20",
"z c #343434",
"x c #353535",
"c c #373737",
"v c gray22",
"b c #393939",
"n c #3C3C3C",
"m c #3E3E3E",
"M c gray25",
"N c #414141",
"B c #434343",
"V c #444444",
"C c #494949",
"Z c #4E4E4E",
"A c gray31",
"S c #505050",
"D c gray32",
"F c gray33",
"G c #555555",
"H c None",
/* pixels */
"HHHHHHHHHHHHHHHHHHHHHHHHHHHHHHHH",
"HHHHHHHHHHHHHHHHHHHHHHHHHHHHHHHH",
"HHj5236wtyyyyyyyipdlmZScauyyypHH",
"HHeo&=;380000000wrihnAZktq0081zH",
"HHe+1+@%<566666680yjVFvr7666i3lH",
"HHe+;  .#-;:;;;:,29sBGz5>;;:r4lH",
"HHe+;  .$-::::::,29sBGz6,:::r4lH",
"HHe+;  .$-::::::,29sBGz6,:::r4lH",
"HHe+;  .$-::::::,29sBGz6,:::r4lH",
"HHe+;  .$-::::::,29sBGz6,:::r4lH",
"HHe+;  .$-::::::,29sBGz6,:::r4lH",
"HHe+;  .$-::::::,29sBGz6,:::r4lH",
"HHe+;  .$-::::::,29sBGz6,:::r4lH",
"HHe+;  .$-::::::,29sBGz6,:::r4lH",
"HHe+;  .$-::::::,29sBGz6,:::r4lH",
"HHe+;  .$-::::::,29sBGz6,:::r4lH",
"HHe+;  .$-::::::,29sBGz6,:::r4lH",
"HHe+;  .$-::::::,29sBGz6,:::r4lH",
"HHe+;  .$-::::::,29sBGz6,:::r4lH",
"HHe+;  .$-::::::,29sBGz6,:::r4lH",
"HHe+;  .$-::::::,29sBGz6,:::r4lH",
"HHe+;  .$-::::::,29sBGz6,:::r4lH",
"HHe+;  .$-::::::,29sBGz6,:::r4lH",
"HHe+;  .$-::::::,29sBGz6,:::r4lH",
"HHe+;  .#-::::::,29sBGz6>:::r4lH",
"HHe@,XXO*,<<<<<<25wfVGx81<<<y4lH",
"HHeO1238wrttttttyiszMSClitttr2zH",
"HHto..O*>,,,,,,<149pcADf71,,,2xH",
"HHHrweusghhhhhhhhkzbNZAnlhhhhjHH",
"HHHHHHHHHHHHHHHHHHHHHHHHHHHHHHHH",
"HHHHHHHHHHHHHHHHHHHHHHHHHHHHHHHH",
"HHHHHHHHHHHHHHHHHHHHHHHHHHHHHHHH"
};
