/* XPM */
static char *_eb3ab8b7da5445995c8d03dad6681e2pvEaYnLvft7ek6Bz[] = {
/* columns rows colors chars-per-pixel */
"33 32 12 1 ",
"  c None",
". c #733E39",
"X c #265C42",
"o c #A22633",
"O c #F77622",
"+ c #E43B44",
"@ c #D77643",
"# c #3E8948",
"$ c #63C74D",
"% c #FEAE34",
"& c #E4A672",
"* c #EAD4AA",
/* pixels */
"                                 ",
"                                 ",
"                                 ",
"                                 ",
"                                 ",
"                                 ",
"                                 ",
"           *@@@*@@*@             ",
"        @*@@@@@@@@@@@*@@         ",
"      @@@@@@@*@@@*@@@@@*@@       ",
"     @@@@@@@@@@@@@@@@@@@@@@      ",
"     &&&&&&&&&&&&&&&&&&&&&&      ",
"    &&&&&&&&&&&&&&&&&&&&&&&&     ",
"    ************************     ",
"   ##XX######$$XX#XX#$$$##X##    ",
"   #+++++oooooo+++++oooooOoo     ",
"   %%OOOOOOOOOOOOOOOOOOOOOO%%    ",
"   ..%%%%%%%%%%%OOOO%%%%%%...    ",
"   ....%%%%%%%......%%%......    ",
"   ..........................    ",
"    #$$#$$XX##$$$########X##     ",
"    &&&@@###&@@##@@&##XXX@&@     ",
"    &&&&&&&&&&&&&&&&&&&&&&&&     ",
"    &&&&&&&&&&&&&&&&&&&&&&&@     ",
"     @@@@@@@@@@@@@@@@@@@@@@      ",
"                                 ",
"                                 ",
"                                 ",
"                                 ",
"                                 ",
"                                 ",
"                                 "
};
