/* XPM */
static char *result[] = {
/* columns rows colors chars-per-pixel */
"46 46 9 1 ",
"  c #0F0B0D",
". c #1B1114",
"X c #27151A",
"o c #301C1D",
"O c #372021",
"+ c #252738",
"@ c #2D2E38",
"# c #512D2F",
"$ c None",
/* pixels */
"$$$$$$$$$$$$$$$$$$$$$$$$$$$$$$$$$$$$$$$$$$$$$$",
"$$$$$$$$$$$$          $$$$$$$$$$$$$$$$$$$$$$$$",
"$$$$$$$     O#O####O#O     $$$$$$$$$$$$$$$$$$$",
"$$$$   #O##OOOOOOOOOOOO##O#   $$$$$$$$$$$$$$$$",
"$$$ #OOOOOOX          XOOOOOO# $$$$$$$$$$$$$$$",
"$$ #OOX     . ...... .     XOO# $$$$$$$$$$$$$$",
"$$ OOX .. ..X XXXXXX X..    XOO $$$$$$$$$$$$$$",
"$$ Oo .XX XXX XXXXXX XXX     oO $$$$$$$$$$$$$$",
"$$ OX .XX X.o oooooo o.X     XO $$$$$$$$$$$$$$",
"$$ OX . X ooo oooooo ooX     XO $$$$$$$$$$$$$$",
"$$ Oo .XX ooo XX..XX ooX     oO $$$$$$$$$$$$$$",
"$$ oX  .  ooo   XoOo ooo XX  Xo $$$$$$$$$$$$$$",
"$$ oX .XX ooo    Xoo ooo XX. Xo $$$$$$$$$$$$$$",
"$$ oX @ X ooo     Xo ooo X . Xo $$$$$$$$$$$$$$",
"$$ OX +@X ooo     Xo ooo XX. XO $$$$$$$$$$$$$$",
"$$ Oo @.X o.o    XX. o.o XX. oO $$$$$$$$$$$$$$",
"$$ OX .XX ooo   XOOO ooo XX. XO $$$$$$$$$$$$$$",
"$$ oX .XX XX.   Xooo .XX XX. Xo $$$$$$$$$$$$$$",
"$$ oX . X oOO  Xoooo OOo X . Xo $$$$$$$$$$$$$$",
"$$ OX .XX o.o XX..XX o.o XX. XO $$$$$$$$$$$$$$",
"$$ Oo ..  ooo ooOOoo ooo  .. oO $$$$$$$$$$$$$$",
"$$ OX .XX ooo oooooo ooo XX. XO $$$$$$$$$$$$$$",
"$$ oX . X ooo oooooo ooo X . Xo $$$$$$$$$$$$$$",
"$$ oX .XX ooo oooooo ooo XX. Xo $$$$$$$$$$$$$$",
"$$ oX .XX .XX oooooo XX. XX. Xo $$$$$$$$$$$$$$",
"$$ oX .XX OOo .XXXX. oOO XX. Xo $$$$$$$$$$$$$$",
"$$ OX .XX o.o OOooOO o.o XX. XO $$$$$$$$$$$$$$",
"$$ oX . X ooo oooooo ooo X . Xo $$$$$$$$$$$$$$",
"$$ oX .XX ooo oooooo ooo XX. Xo $$$$$$$$$$$$$$",
"$$ oX  .  ooo oooooo ooo  .  Xo $$$$$$$$$$$$$$",
"$$ oX .XX ooo oooooo ooo XX. Xo $$$$$$$$$$$$$$",
"$$ oX . X o.o .X..X. o.o X . Xo $$$$$$$$$$$$$$",
"$$ oX .XX ooo oOOOOo ooo XX. Xo $$$$$$$$$$$$$$",
"$$ oX .XX .X. oooooo .X. X.  Xo $$$$$$$$$$$$$$",
"$$ o. .XX OOO oooooo OOO .   .o $$$$$$$$$$$$$$",
"$$ o. .XX o.o oooooo o.o .   .o $$$$$$$$$$$$$$",
"$$ oX @XX ooo X....X ooo .   Xo $$$$$$$$$$$$$$",
"$$ o. +@X ooo OooooO ooo X.  .o $$$$$$$$$$$$$$",
"$$ o. @.X .XX oooooo XX. XX. .o $$$$$$$$$$$$$$",
"$$ .. .X  XOo oooooo oOO XX. .. $$$$$$$$$$$$$$",
"$$ ..     X.o .XXXX. o.o XX. .. $$$$$$$$$$$$$$",
"$$ ..     Xoo OOooOO ooo XX. .. $$$$$$$$$$$$$$",
"$$ ..     Xoo oooooo ooX XX. .. $$$$$$$$$$$$$$",
"$$ .      XXX XXXXXX XXX X .  . $$$$$$$$$$$$$$",
"$$         XX XXXXXX XXX XX.    $$$$$$$$$$$$$$",
"$$$$$$$$$$$$$$$$$$$$$$$$$$$$$$$$$$$$$$$$$$$$$$"
};
