/* XPM */
static char *result[] = {
/* columns rows colors chars-per-pixel */
"32 32 162 2 ",
"   c #0D0E24",
".  c #120F24",
"X  c #0F1125",
"o  c #151225",
"O  c #1A1426",
"+  c #1F1826",
"@  c #121229",
"#  c #1A1729",
"$  c #1C192A",
"%  c #1D1C32",
"&  c #211626",
"*  c #2D1527",
"=  c #221A26",
"-  c #221729",
";  c #2E1528",
":  c #221A29",
">  c #2D1E2C",
",  c #321628",
"<  c #391628",
"1  c #331B2A",
"2  c #3C1929",
"3  c #221F34",
"4  c #301E30",
"5  c #262129",
"6  c #2D212B",
"7  c #3E2524",
"8  c #3E2E27",
"9  c #34222E",
"0  c #3B362F",
"q  c #212135",
"w  c #282437",
"e  c #23273E",
"r  c #302230",
"t  c #3D2732",
"y  c #362B3C",
"u  c #382839",
"i  c #3E3931",
"p  c #661C2D",
"a  c #6B1E2E",
"s  c #412624",
"d  c #4A2725",
"f  c #422F27",
"g  c #4C2B24",
"h  c #422129",
"j  c #402F28",
"k  c #5E2A27",
"l  c #582A29",
"z  c #423027",
"x  c #4E3426",
"c  c #433128",
"v  c #4D3228",
"b  c #4D3C2C",
"n  c #523226",
"m  c #533827",
"M  c #533C2A",
"N  c #412832",
"B  c #4A2C30",
"V  c #4C3334",
"C  c #443D31",
"Z  c #612B27",
"A  c #6B2F27",
"S  c #79252D",
"D  c #6D3A24",
"F  c #62352D",
"G  c #782C31",
"H  c #54402C",
"J  c #59412E",
"K  c #4E4331",
"L  c #534532",
"P  c #5F4134",
"I  c #544A34",
"U  c #594738",
"Y  c #5C4938",
"T  c #714527",
"R  c #7D4725",
"E  c #654D3B",
"W  c #6E5833",
"Q  c #675038",
"!  c #735D34",
"~  c #7F6737",
"^  c #74683D",
"/  c #2B2F4B",
"(  c #2C314C",
")  c #34334D",
"_  c #323957",
"`  c #333A58",
"'  c #3A3D5A",
"]  c #3C486B",
"[  c #821F30",
"{  c #94302D",
"}  c #98322D",
"|  c #852130",
" . c #882330",
".. c #983D30",
"X. c #A6382D",
"o. c #A13E31",
"O. c #964922",
"+. c #9C4D23",
"@. c #805028",
"#. c #A44E24",
"$. c #B44F26",
"%. c #AB5224",
"&. c #AB5624",
"*. c #A85228",
"=. c #B65026",
"-. c #B85226",
";. c #9D6D2D",
":. c #A2712E",
">. c #AF752D",
",. c #AD7B31",
"<. c #BA7330",
"1. c #C55F21",
"2. c #C34B34",
"3. c #C66022",
"4. c #CB6224",
"5. c #C66A26",
"6. c #CB6D25",
"7. c #D66B23",
"8. c #C6762F",
"9. c #C9762F",
"0. c #CE7A2F",
"q. c #DA7426",
"w. c #CD7A31",
"e. c #D77733",
"r. c #E56525",
"t. c #877244",
"y. c #8B7445",
"u. c #B38032",
"i. c #CC822D",
"p. c #DA872C",
"a. c #C48831",
"s. c #CC8E31",
"d. c #CD9A3A",
"f. c #D19031",
"g. c #DD9332",
"h. c #D19B3A",
"j. c #FF8526",
"k. c #FF942E",
"l. c #FD992D",
"z. c #F79733",
"x. c #FAA130",
"c. c #FFB635",
"v. c #FFB835",
"b. c #FFBA3B",
"n. c #9B8E49",
"m. c #9E924A",
"M. c #A3944A",
"N. c #A9964B",
"B. c #AC9A4A",
"V. c #B39D4E",
"C. c #B6A450",
"Z. c #BEA752",
"A. c #CBA549",
"S. c #D1A949",
"D. c #CEB14C",
"F. c #D3B44D",
"G. c #C1A952",
"H. c #CFBD55",
"J. c #E0B34A",
"K. c #DFC756",
"L. c #FFC248",
"P. c #FFD950",
/* pixels */
"O o o O o O o O o o o O o o o M f.f.m o o o o o o + o $ e e $ O ",
"O O O O O O O O q % O O o o @ c :.:.z o o @ o o o o o # q q $ O ",
"o O O o O o O % ( ( 3 o o @ X = c c = o o o . o o o o O $ # # o ",
"o o o o o o o % ( ( $ : C H m s = @ o = c H J C 6 : : & O O O o ",
"o o o o o o o O 5 % X i m.S.0.+.s     z ;.h.F.M.U > 1 > + o O O ",
"2 2 d x M 8 = o o = j ! V.S.0.+.7 + s T >.h.D.C.t.E V r : o o o ",
"[ { =.6.i.;.8   X c :.u.! H n 7 + s +.&.T b K ^ C.V.E 9 + o O o ",
"[ { $.q.l.g.~ i $ z :.:.8   . O * Z %.+.7     C N.V.E 9 + O + : ",
"2 7 d R q.l.F.n.C + z c = @ o , a [ Z s = X o 6 Y E V 9 - + > 9 ",
"o X   7 O.9.S.B.W 7 + o # + o , a Z , O * , & = > 1 9 > + & 9 N ",
"o o @ & 7 x b W ,.;.f O > > + & , , o , a S , o # # & + o : 9 N ",
"O o O o @ $ 0 ~ J.h.M O > 6 : o o o o , a p , o o # % 3 q w r 9 ",
"O o + o o i n.K.P.D.H o O : + o o o O & , , & o O $ ( _ _ ( w & ",
"o O o o . C M.H.H.n.C . o o o O O o o o X o o o o q _ ] ] _ 3 o ",
"O O O o o 5 b I L C : o o O O O O O o @ o X . @ o q _ ] ] _ 3 o ",
"o o o o o o o . . o : : + o o o o = s n m M I b 5 3 ) ' ` ( $ o ",
"o o . o O o o @ . # > > = o O o @ s +.6.i.d.F.N.L 4 u y w % # O ",
"o 5 C C 5 O % % # & > > + o o & ; k #.6.i.h.F.Z.t.E V 9 + o O o ",
"o b M.M.C % / ( 3 O # # o o o , a S k n n J Q y.G.V.E 1 : o o O ",
". C M.M.C % ( ( $ & s d 7 1 + , a a ; X   o : U V.V.E 4 + o O o ",
"o 5 C K 5 # % $ @ 7 +.-.} p ; & , , + o   o O 9 Y Q V 9 & O o O ",
"O o @ . o O o : 8 R 7.r.X.a ; o o o @ + ; 2 2 , 4 1 9 > + o O o ",
"+ o o o o o @ z ;.p.j.1.A * & o o X X * a  . .a 1 # + + O o o o ",
"o o o o o o @ b d.b.l.5.g X @ = s n H P G | | S k 7 : o O : : : ",
"o o o o + o . H D.P.b.i.x   @ s +.w.S.M.J , < k %.+.7 @ > 9 9 9 ",
"2 , + o o o @ C n.D.d.;.z @ . s +.w.S.m.C     7 +.&.D n F F B t ",
" .Z , @ o o o 5 C K M z = o o = 7 n H K 5 o o = s D %.3.4.*.k u ",
" .S Z 2 = o O o O # o o o O O + * * o o o & , * O d 3.j.z.8.T 9 ",
", k +.+.s   o + > > # o o O o , p p * X o ; a a * d 1.k.L.A.L # ",
". x 5.q.@.f : + 6 1 - o O o o h ..o.l * + ; a a * 7 O.8.A.n.C . ",
"  x i.x.g.;.z o + # O o o o . v <.e.o.p * + , , & = 7 x L C : o ",
". b a.c.v.s.m @ o o O O # o . b s.z.2.[ 2 o @ o O o @ .   . o # "
};
