/* XPM */
static char *_5681d84c86947879a5396ade600c86c0gJ3pPGHxwg5EBke[] = {
/* columns rows colors chars-per-pixel */
"16 16 8 1 ",
"  c #181425",
". c #3E2731",
"X c #262B44",
"o c #3A4466",
"O c #A22633",
"+ c #F77622",
"@ c #FEAE34",
"# c #FEE761",
/* pixels */
"        @     X ",
"    o           ",
"      #+  @#..  ",
"O+@  @   +  #.  ",
"  +#    O   .. .",
"    @ .   O    .",
"   ##        oo ",
"             oo ",
"     .   +@#..  ",
" # o    O  .#.  ",
"     +O     ..  ",
"    @+    OO    ",
"    #@  +#  + ..",
"O            ++.",
" +  .   O  O +# ",
" @@     @O      "
};
