/* XPM */
static char *result[] = {
/* columns rows colors chars-per-pixel */
"32 32 89 1 ",
"  c #00391F",
". c #003F22",
"X c #004A24",
"o c #004A28",
"O c #00542E",
"+ c #00592E",
"@ c #005636",
"# c #005E34",
"$ c #005D3B",
"% c #006734",
"& c #00623D",
"* c #006E39",
"= c #005F42",
"- c #006643",
"; c #006A46",
": c #00664C",
"> c #006C4B",
", c #007144",
"< c #007847",
"1 c #007449",
"2 c #007E4E",
"3 c #006D56",
"4 c #007454",
"5 c #007F50",
"6 c #00745C",
"7 c #007C5D",
"8 c #006B69",
"9 c #007562",
"0 c #007C64",
"q c #007D6B",
"w c #007674",
"e c #00825A",
"r c #008463",
"t c #008C64",
"y c #00836D",
"u c #00946E",
"i c #008373",
"p c #008A72",
"a c #008679",
"s c #008B7C",
"d c #009274",
"f c #00927B",
"g c #009C7B",
"h c #008985",
"j c #009384",
"k c #00948A",
"l c #009C8A",
"z c #009A93",
"x c #009E98",
"c c #00A282",
"v c #00A58D",
"b c #00AB8D",
"n c #00A395",
"m c #00AA91",
"M c #00A79A",
"N c #00AB9C",
"B c #00B094",
"V c #00B499",
"C c #00ADA2",
"Z c #00B3A6",
"A c #00B9A5",
"S c #00B5AB",
"D c #00B6B2",
"F c #00BAB4",
"G c #00BEBC",
"H c #00C2AE",
"J c #00C5B1",
"K c #00C3BB",
"L c #00CBBE",
"P c #00C7C1",
"I c #00CBC4",
"U c #00CAC9",
"Y c #00D1C2",
"T c #00D6C9",
"R c #00DBCD",
"E c #00D5D2",
"W c #00DED3",
"Q c #00DEDE",
"! c #00E0D7",
"~ c #00E1D9",
"^ c #00E8DF",
"/ c #00E5E1",
"( c #00EAE2",
") c #00EDEC",
"_ c #00F1ED",
"` c #00F3F0",
"' c #00F8F6",
"] c #00FCFB",
"[ c None",
/* pixels */
"[[[[[[[[[[[[[[[[[[[[[[[[[[[[[[[[",
"[[[[[[[[[[[[[[[[[[[[[[[[[[[[[[[[",
"[.oooooooooooooooXooXooXoXoooo [",
"[1;$&&&----;;;;:---&&&$&&----1-[",
"[r$$4rslMZFKPUIFNlpr>&+*4plCn64[",
"[p:,ucVHY!(`]]](TJVgt<*<ubHRIiy[",
"[l3,ucVJYW(_']](TJmgt<*eubHRPhf[",
"[N6*ucVHYW(`']](TJBge<*eubHRLll[",
"[A0,tgVHY!^_']](RHBge<%eubHRLxM[",
"[Kq,ucVHY!^_']](THBgt<*<ubHRLCZ[",
"[Ia,tcVJLW(_']](THBgt<*eubHRPSD[",
"[Es,ucVHY!^_']](THBut<*<ubHRPDG[",
"[Wh,tcVHY!^`']](THBgt<*eubHRPGP[",
"[Qj,ucVJL!^_']](THBgt**eubHRPGU[",
"[Qj,tgVHL!^_']](RHBgee*eubHRPGU[",
"[Es;ugVJY!^_']](THBgt**<ubFWPFK[",
"[Lp,ucVJYW(_']](THBgt<*2ugHRLVA[",
"[Z9,tcVHYW(_']](THBgt<*<uBJRLbM[",
"[n4;tcVHYW(_']](RHBgt<*eugJRPjl[",
"[f:,ucVJYW(_']](THBge<*<uBJRPpp[",
"[r=,ugVHYW^_']](THBgt<*eubHRL07[",
"[5@,tcVHYW(_']](RHBgt<*<ubHRP3;[",
"[&o1tcVHYW^_']](LJBgte*<ubAWL-$[",
"[%X,ucVHYW(_']](RHBgt*%eubHTP&+[",
"[;o1tcVHYW(_']](RHBgt<*2ubHRK;&[",
"[7$,ucVHYW^_']'(THBgr<*5ubHRL64[",
"[d:<tcVJY!(_']](THBge<*5umHRPpy[",
"[v3-rgmAKTW/)`_QLAbde,*1tcAIFjj[",
"[Ak9qpahjkzzxxxlkhay0999yahkhZn[",
"[P^~~~~~~QQWWWQQ!!~~~~~~~~!Q~(S[",
"[whhhhhhhhhhhhhhhhhhhhhhhhhhhh8[",
"[[[[[[[[[[[[[[[[[[[[[[[[[[[[[[[["
};
