/* XPM */
static char *result[] = {
/* columns rows colors chars-per-pixel */
"32 32 140 2 ",
"   c #314A1F",
".  c #2F4824",
"X  c #304422",
"o  c #3D4222",
"O  c #354F24",
"+  c #314328",
"@  c #3B4629",
"#  c #35492A",
"$  c #394D2B",
"%  c #365423",
"&  c #3B5227",
"*  c #375826",
"=  c #3D5C25",
"-  c #355128",
";  c #3B542B",
":  c #3E5B2B",
">  c #3C4B32",
",  c #3D5530",
"<  c #3F5E31",
"1  c #3F642B",
"2  c #424F26",
"3  c #4A4F2F",
"4  c #41552C",
"5  c #425C2D",
"6  c #444F32",
"7  c #415630",
"8  c #4A5733",
"9  c #445B32",
"0  c #4D5C34",
"q  c #44573A",
"w  c #4A573C",
"e  c #455B3A",
"r  c #4D5C39",
"t  c #456A25",
"y  c #45642C",
"u  c #48632F",
"i  c #456B2C",
"p  c #4B6B2D",
"a  c #46722A",
"s  c #4B742E",
"d  c #4F792F",
"f  c #466333",
"g  c #4A6433",
"h  c #466B31",
"j  c #4C6C34",
"k  c #46623B",
"l  c #4B643A",
"z  c #4E6B3A",
"x  c #516436",
"c  c #516B33",
"v  c #586C34",
"b  c #53643B",
"n  c #5A653C",
"m  c #536D3C",
"M  c #596D3B",
"N  c #477131",
"B  c #4D7235",
"V  c #4F723B",
"C  c #527436",
"Z  c #547B34",
"A  c #54743C",
"S  c #5B753E",
"D  c #557A3B",
"F  c #5A7C3D",
"G  c #606B3B",
"H  c #4D6340",
"J  c #506741",
"K  c #546D43",
"L  c #596D41",
"P  c #536B4B",
"I  c #567443",
"U  c #5A7443",
"Y  c #557943",
"T  c #5B7B43",
"R  c #577249",
"E  c #5A734A",
"W  c #5C7C4A",
"Q  c #646A42",
"!  c #6F6E4A",
"~  c #627544",
"^  c #627C44",
"/  c #62764A",
"(  c #627C4C",
")  c #6A7F4B",
"_  c #72734C",
"`  c #607652",
"'  c #647D52",
"]  c #697F52",
"[  c #598135",
"{  c #5B823C",
"}  c #5F8A3A",
"|  c #63893E",
" . c #5D8244",
".. c #5E8B41",
"X. c #5D8249",
"o. c #638345",
"O. c #648945",
"+. c #698D45",
"@. c #63834B",
"#. c #6A854D",
"$. c #658A4B",
"%. c #6A8B4C",
"&. c #728F4F",
"*. c #669244",
"=. c #669048",
"-. c #6D934E",
";. c #6D994D",
":. c #74954C",
">. c #729B4B",
",. c #648351",
"<. c #6A8553",
"1. c #668951",
"2. c #6C8C53",
"3. c #6D8C5B",
"4. c #718554",
"5. c #738E54",
"6. c #7C8D53",
"7. c #728C5B",
"8. c #6D9353",
"9. c #739453",
"0. c #789756",
"q. c #749952",
"w. c #7B9956",
"e. c #74945B",
"r. c #79945D",
"t. c #75985B",
"y. c #7B9B5B",
"u. c #7DA359",
"i. c #738963",
"p. c #739160",
"a. c #799565",
"s. c #7B9B62",
"d. c #7DA262",
"f. c #819064",
"g. c #879569",
"h. c #849E71",
"j. c #82A462",
"k. c #87A46C",
"l. c #93AA78",
"z. c #9CB97F",
/* pixels */
"w.@.h C g T y Y 3.B <.  5 E f f g T @.1.( R #.C T ,.@.A 4 $ @ 8 ",
"@.X.D D , H I D 2.T 4 U R @.q.R ] W l V g ,.t.o.A T e.W b 3.4.@.",
"D E #.D Z K > S | Z >.S 7.( F W J X.W D D m R  .h T D B  .:.A o.",
"{ $.U B $.| C * Z = o.g p.W s Z . ; X.2 S g E l B  .D l g j Y <.",
"d +.:.+.g S  .O.y B -.z , 3.D 2.k - = I 3.B T I i y M j & A ,., ",
"D [ j O...1.q D p.L W ) ; A 1.U n o r y.@.A B N V $.X.D h k ' z ",
"j W & Z u.e.Z F g.~ 6 8.A | l.F 6.! ~ q.A $.,.5 @.d.,.B A ,.h p ",
"J W m i s c v d %.5.r ^ ) S -.D U G @.%.9 U x m Y A f 5.,.9 { h ",
"..1.z.X.t U r z { #.) 0 ,.Y V E 7.9.8.k.w X T ` ,.I C ^ #.v j +.",
"V D ,.Y p n ( @.@.z F 8 f D . % i 2.@.4.n y  .g ; Y 0 %.o.) r W ",
"z F D f O.3.k 5 A f #.@.V A # e A o.[ F U ,.B X.-   @.1.O.I v J ",
"V g I 5 *.#.Z g ; L T @. .D D K & C y $.< K @.^ Q 6 2.F T $.D I ",
"[ D ,.3.i p v b 7.#. .T ( C  .[  .A B X.W 5 5.e.^ _ o.2.@ j r.J ",
"A Y F 3.c S E T S D W [ %.-.A  .l o.f.8 W o.F %.^ 5.%.g.8 z 5.^ ",
"M K  .] g z I j 4 W K y | j *.y.S Z 5.4.b ~ T g 9  .1.F ^ 0 o.o.",
"j $.e.#.g l q j i K I h I 5 t Z v p F ) T ,  .- 5 S ~ C b / 1.D ",
"U T o.T S j b A C R V i I s.3.t L E  .I A S g : D o.5 c ^ @.2.T ",
"y  .v m n <.@.D t.L h +. .$.' j T I F C O c g U B D D @.W f p 5 ",
"T s A ~ T @.8.D { #.L b V D c { 9.,.E F D e J T m 2.#.^ T C T  .",
"h j $.q.3.E D h T +.U A ( B @.8.U <.D A D D C 5 # h C O.I z A m ",
"i j I T A ,.k Z T E @.& W , # l h | O.$.B / W C @.7.x A +. .K  .",
"T #.X.B B V V s g K $.U Z : 9 U W y W T F @.9 %.,. .I A I V t.E ",
"g g y z 8.I z T O.l U $.+.M ^ q.M c A 9 z W #./ T I T j ^ R j C ",
"$.o.X.D o.A : p 4 & B @.G T z b l ~ <.T 2.( & 9 ; @.I g E D $.p ",
"8.^ a.L @.g 9  .B A h [ p g L U 3.%.m B 3.<.j 8 6 @.@.; e 3.y U ",
"F j #.F j +.T  . .T A N D @.U X.@.t.O.A Y ^ L @.@.F T I C p + $ ",
"A h Z O.,.: y U l * V B -.y.w.X.e @.F j N D c A x b U / | j g l ",
"t.R p @.;.{ ( l =.h 1 g L @. .8.i.z B C T Z U L ^ 3.%.U L o.z d.",
"V g F J A A 8.<.( D D ^ W Z D 1 W P y [  .Y y.9.I ,.$.m & $.W Y ",
"J +.T N ,.Y A j.l x ) @. .h g f O.D a i V z  ...3.m 2.W r.4.3.2.",
"B T 9 S X.e.$ C C o.; y , Y 8.1.< h A D B ,.B y m P B  .b 8 ; j ",
"t.A p S g Y 3.z Z ;.3. .I ; H e.j z 8.h.z M D Y C A s j - g K h "
};
