/* XPM */
static char *result[] = {
/* columns rows colors chars-per-pixel */
"32 32 26 1 ",
"  c #363526",
". c #3A3626",
"X c #3D3827",
"o c #343628",
"O c #373829",
"+ c #3C3B2B",
"@ c #3E3F30",
"# c #413927",
"$ c #433E2C",
"% c #4C3F2A",
"& c #3E4132",
"* c #44412F",
"= c #4A422E",
"- c #51452F",
"; c #444433",
": c #4A4633",
"> c #464837",
", c #4C4936",
"< c #454738",
"1 c #464939",
"2 c #4B4B3A",
"3 c #514732",
"4 c #524A35",
"5 c #524D39",
"6 c #4E513F",
"7 c #5A523C",
/* pixels */
";;;X+**:$43$$5,$$$$$#,3345$$$1<$",
";+O+**:;,$$$;$$,5$+$3%:,4$@@1$$<",
"++;1;++.%4<4<++O$;$<>$+@@$166@+o",
"+*;++;;$$3:$$<<@$,$$@<@$@<2$@1@@",
"&O++;*;,2%+$;;;<2$$+$<;2<;@@<<@<",
"&;&>;..+;4,1;@+O$$$1<@$$;<121@ +",
";2,*$;$$;62$$<<@<2:$@<<$:22;@&@@",
"1;++$;;;2$#@;<<11<%$$1126:$+;;<<",
">;;;>$.@$$164$+$;;,21;$;;;4,:+$$",
"*22;$;@.+26,$;;++;2,;<;+@24:%,:$",
",;++@<;;<;$$42,:;$+.;;111;$X$;<4",
",@@<1@$$<;<25$$;;+$,:;+;<@@<;++;",
"$;211::+$55425:%$:54::&O@><1;+O.",
":2;$;574<4$+;67343=$*2,,1,;++&;&",
"4:%;4--33$#;>;3,,$$::%$4>++;2++;",
"=52223%#$<25<:$$$;:4:;##=::::$#$",
"*=**=4,:-,3==5>&;;=$$45=-33#%,:$",
";*&;4:&*2&&&&;;1<X#:3=:,:%$$,:;:",
"*;>,3=&&&1161&XO+::34$$$$:,4:++X",
"*,***>>;&2;&*>&&+3=##,,;=33%#;@+",
";*X&**;;1&o&*;;;;+X+:::*:$+&:*=;",
"*&&1:*&X&&&;*&&X;&&&;+XX$$&;$+X+",
"&&*;&,=&*=>*&1&&@1;++;+$$;*$.;+.",
"*X &&;***#&*;2222$.+;;*;;$X.$*;;",
"&.&;>&X&$=,47;*=*&*;<&O++$$;:$#*",
"*;,*&;X +=-=:4=++**$&<;+$;$$$=*$",
":>**;=;&&*#$:,:;*+  &<<<;+.o+;:,",
"3&*;:XX&+++*,**=;++=,**;@$&;;++:",
"::2,**& O;:;=:$.+&;::;;$;212;;;$",
"4,*+*3;&**$X:,;:**$XO,2522;+;222",
",=*=;=**;&$:4*$;*X+&;*=,5::::::,",
"&1:,:*&X&;;,5=XXX:;;1$%#:4422:$+"
};
