/* XPM */
static char *_5f196c42d5f41e3b6814b1d57b37531jxCPV9r6Tl2XIWg8[] = {
/* columns rows colors chars-per-pixel */
"32 32 132 2 ",
"   c None",
".  c #010D34",
"X  c #001037",
"o  c #03153B",
"O  c #04183E",
"+  c #4C1F3C",
"@  c #5E223B",
"#  c #65243E",
"$  c #6B253D",
"%  c #70253D",
"&  c #031D45",
"*  c #0E1E44",
"=  c #021F48",
"-  c #2F1F41",
";  c #04224C",
":  c #05294D",
">  c #1A2B4E",
",  c #042752",
"<  c #022A56",
"1  c #042E5B",
"2  c #03315E",
"3  c #063C5E",
"4  c #22254A",
"5  c #2A274C",
"6  c #23284E",
"7  c #213355",
"8  c #033363",
"9  c #063E60",
"0  c #033668",
"q  c #033A6C",
"w  c #023E71",
"e  c #573153",
"r  c #5C3354",
"t  c #61304F",
"y  c #613859",
"u  c #06405E",
"i  c #054263",
"p  c #064768",
"a  c #074A6A",
"s  c #044273",
"d  c #054B7C",
"f  c #114B7E",
"g  c #075C7A",
"h  c #1C5875",
"j  c #344463",
"k  c #56647E",
"l  c #8C263A",
"z  c #84283E",
"x  c #8D293E",
"c  c #97283C",
"v  c #9D293A",
"b  c #A42B3B",
"n  c #C72F3B",
"m  c #CC2E3A",
"M  c #DE2D36",
"N  c #D7313B",
"B  c #DA313A",
"V  c #E22D35",
"C  c #E4333B",
"Z  c #E8333B",
"A  c #F2343B",
"S  c #943D55",
"D  c #9B3C53",
"F  c #AA3548",
"G  c #8B4561",
"H  c #024D83",
"J  c #055187",
"K  c #04538A",
"L  c #045991",
"P  c #045F99",
"I  c #086682",
"U  c #086B87",
"Y  c #086D89",
"T  c #04619B",
"R  c #076F99",
"E  c #0465A0",
"W  c #056BA7",
"Q  c #0C6EA9",
"!  c #0774A0",
"~  c #0570AD",
"^  c #0575B3",
"/  c #067BB2",
"(  c #037AB8",
")  c #636C84",
"_  c #667289",
"`  c #02849D",
"'  c #09839C",
"]  c #0288A1",
"[  c #098CA4",
"{  c #1596AC",
"}  c #0680BF",
"|  c #0B9AB0",
" . c #0BA5BA",
".. c #0CABBF",
"X. c #7D889C",
"o. c #0686C7",
"O. c #0687C9",
"+. c #0689CB",
"@. c #068FD2",
"#. c #0692D6",
"$. c #0696DB",
"%. c #0894D9",
"&. c #069ADE",
"*. c #0A9FDC",
"=. c #0CADC1",
"-. c #0CB2C6",
";. c #07A1DF",
":. c #0AA0DE",
">. c #069BE2",
",. c #07A4E1",
"<. c #08A7E2",
"1. c #08ACE5",
"2. c #07ABEA",
"3. c #0DC1D2",
"4. c #0BC4DD",
"5. c #0CCBDC",
"6. c #0ED3E2",
"7. c #0EDDEB",
"8. c #0DDAF6",
"9. c #0EE2EF",
"0. c #0EE5F5",
"q. c #0EE9F6",
"w. c #0EE5F8",
"e. c #0FEDFA",
"r. c #0FF4FE",
"t. c #10FBFF",
"y. c #838EA1",
"u. c #A0A9B7",
"i. c #A1AAB8",
"p. c #BFC4CE",
"a. c #F6F9FA",
"s. c #FAFCFC",
/* pixels */
"                                                                ",
"                                                                ",
"                                                                ",
"                              o o o o o                         ",
"                          . : =.-.-./ ~ 9 o                     ",
"                        3  .=.r.r.r.8.2.H 1 ;                   ",
"                      9 ..r.r.e.e.e.r.R 1 2 8 ;                 ",
"                    a  .r.r.t.r.r.r.r.3 . 1 q 8 ,               ",
"                    g t.r.0.[ ` ] q.r.! J s 0 8 & X             ",
"                  p | r.7.' * ) ) { 9.1.>.^ w & j )             ",
"                  Y t.r.3.X 7 s.s.7 5.1.$.>.d . y.u..           ",
"                  U r.r.3.X 7 a.a.7 5.<.$.>.d . y.u..           ",
"                  U t.r.5.3 > p.p.h 4.<.$.>.H X _ X.X           ",
"                  Y r.e.r.6.3 3 i 7.,.$.$.&.P < & & O           ",
"                  I 0.r.e.e.e.e.q.w.,.$.$.#.L 0 0 < O           ",
"                    I r.e.e.e.e.w.,.$.@.@.L q q < O             ",
"                    g e.e.e.w.>.&.$.$.p , 8 0 q < &             ",
"                      d *.*.:.$.$.$.>.+.O.K 0 < &               ",
"                      - F G %.$.%.%.$.$.P w 0 < o               ",
"                      * e B D D S H H H w 0 t + o               ",
"                    q ( Q r V V V F l l x S m % O               ",
"                    w ,.@.Q y Z V M V V M V l 4 1 ,             ",
"                  q ^ &.&.O.0 # V Z Z Z V A @ < w 8 ,           ",
"                  d >.&.&.O.0 , t V Z Z A v - 2 q q 8 ,         ",
"                  d &.%.&.+.w P < $ B A b 6 < 8 q q q 1 &       ",
"                  d >.>.#.W E $.P & n b 4 8 , = 8 q q 8 O       ",
"                  s ~ ^ ~ P &.$.$.1 z > 8 8 ; O , 1 1 < O       ",
"                    ; 8 s >.&.%.%.L ; 8 q ; O     o & o         ",
"                        2 } $.$.$.$.1 2 q ;                     ",
"                          1 %.%.$.$.< 8 0 ;                     ",
"                          1 o.o.O.o.1 8 ;                       ",
"                            ; & & & 8 q ;                       "
};
