/* XPM */
static char *d3f946ff426e4b4a91c49cf6873def3e6tB5H4yRcjyVZX9x[] = {
/* columns rows colors chars-per-pixel */
"32 32 135 2 ",
"   c None",
".  c #030D34",
"X  c #041136",
"o  c #02163C",
"O  c #04193E",
"+  c #0D1A3F",
"@  c #141B3F",
"#  c #1D1B3E",
"$  c #201C3F",
"%  c #411C39",
"&  c #4F223E",
"*  c #59213B",
"=  c #73243B",
"-  c #78263C",
";  c #041D44",
":  c #041F48",
">  c #2B1F40",
",  c #04234C",
"<  c #08254D",
"1  c #052A4E",
"2  c #182347",
"3  c #12254B",
"4  c #132C4F",
"5  c #012652",
"6  c #042B53",
"7  c #022C5A",
"8  c #04315E",
"9  c #063D5F",
"0  c #25274D",
"q  c #312547",
"w  c #312E52",
"e  c #253859",
"r  c #283B5B",
"t  c #343256",
"y  c #033464",
"u  c #043866",
"i  c #033769",
"p  c #03396B",
"a  c #0C3B6C",
"s  c #143663",
"d  c #1E3663",
"f  c #033F72",
"g  c #5A3658",
"h  c #064364",
"j  c #074E6D",
"k  c #044172",
"l  c #054B7D",
"z  c #075473",
"x  c #075877",
"c  c #085E7B",
"v  c #334563",
"b  c #08627E",
"n  c #4A5975",
"m  c #89273B",
"M  c #8F283C",
"N  c #A52737",
"B  c #AB2736",
"V  c #A22B3C",
"C  c #BA2734",
"Z  c #B22837",
"A  c #BF2A37",
"S  c #BB2C3A",
"D  c #C52B37",
"F  c #C02D3A",
"G  c #D52F39",
"H  c #CF303B",
"J  c #D3313C",
"K  c #DF323B",
"L  c #E33139",
"P  c #EA333B",
"I  c #F2343B",
"U  c #044F84",
"Y  c #055187",
"T  c #045289",
"R  c #045D96",
"E  c #055E98",
"W  c #086683",
"Q  c #086D89",
"!  c #076990",
"~  c #04649F",
"^  c #097B94",
"/  c #097E98",
"(  c #0567A0",
")  c #0568A4",
"_  c #056CA9",
"`  c #0374B2",
"'  c #0478B7",
"]  c #057CBC",
"[  c #257CB7",
"{  c #3679B0",
"}  c #66788F",
"|  c #02829A",
" . c #0A8CA4",
".. c #1192A9",
"X. c #2582BE",
"o. c #2E80B9",
"O. c #0BA1B6",
"+. c #0BA3B8",
"@. c #0BA9BD",
"#. c #0684C5",
"$. c #068ACC",
"%. c #0E8CCD",
"&. c #168CCC",
"*. c #1A8AC9",
"=. c #068FD2",
"-. c #0691D5",
";. c #0A93D7",
":. c #0696DB",
">. c #0598DE",
",. c #0BA9C0",
"<. c #0CBBCF",
"1. c #0BB2D2",
"2. c #069BE1",
"3. c #08A5E0",
"4. c #08ADE4",
"5. c #08B3ED",
"6. c #0ECDDA",
"7. c #0CC7E3",
"8. c #0CCEEE",
"9. c #0DD3E2",
"0. c #0EDCEB",
"q. c #0BCFF3",
"w. c #0CD5F4",
"e. c #0BD9F5",
"r. c #0DDEF9",
"t. c #0EE1EF",
"y. c #0EE3F3",
"u. c #0FEAF7",
"i. c #0FEFFB",
"p. c #0FF2FD",
"a. c #0FF9FF",
"s. c #10FAFF",
"d. c #A6AEBB",
"f. c #B5BDC7",
"g. c #EAEDF0",
/* pixels */
"                                                                ",
"                                                                ",
"                                                                ",
"                                                                ",
"                            . . . X                             ",
"                          Q / / ! Y U                           ",
"                      W W 9.a.a.r.5. .5 5                       ",
"                    b y.p.p.i.i.p.7.~ y i 5                     ",
"                  x u.i.p.p.p.i.p.+.. ; p p ,                   ",
"                h u.i.i.0.9.9.y.p.,.5 6 i p y ;                 ",
"                j u.i.0.h 4 4 ..p.8.=.#.f y ; 3                 ",
"              z t.p.y.h O d.g.} | e.:.:.#., ; f.n               ",
"              z p.p.t.6 o e v 2 ^ w.:.:.$.: O r 3               ",
"              z p.p.y.1 O o o . ^ e.:.>.$., O o O               ",
"              z p.i.u.@.1 . . b 1.4.:.:.$.y ; O O               ",
"              z a.i.i.p.O. . .6.q.;.:.:.=.f 6 7 ;               ",
"              h +.u.i.p.p.s.a.r.4.:.2.=.) p p 7 ,               ",
"                9 p.p.p.p.w.q.4.:.$.) E i p p ,                 ",
"                h <.e.e.e.3.:.:.>.` y u p p y ;                 ",
"                  , [ X.;.:.:.:.:.:.:.' p p ;                   ",
"                  # C A { &.*.%.%.-.' p i s ;                   ",
"                  $ J L S S F g k a a a d N #                   ",
"                  + > H L L P D B B B B Z G #                   ",
"                  5 ' o.w S I P L L L L L L >                   ",
"                  6 :.>.' t $ Z I P P P J &                     ",
"                  , R -.>.` f q * M I I J +                     ",
"                  ; u =.2.3.R 7 5 0 = m J @                     ",
"                  , R _ _ _ ( E T y 5 3 - +                     ",
"                  6 =.R T T #.=.R i p i , ,                     ",
"                  k -.:.>.2.#.U 7 y p p p i 5                   ",
"                8 ;.:.:.:.$.k o ; , i p p p p :                 ",
"                8 :.:.:.:.p         , p p p p :                 "
};
