/* XPM */
static char *_18abeeb0f1c4589e99402db745736e6UtAZytk8R8G155r7[] = {
/* columns rows colors chars-per-pixel */
"32 32 101 2 ",
"   c none",
".  c #293F64",
"X  c #2B4265",
"o  c #2C4468",
"O  c #2F4A6D",
"+  c #334C6C",
"@  c #38506D",
"#  c #374F70",
"$  c #375573",
"%  c #3B5472",
"&  c #3E5A75",
"*  c #3E5C78",
"=  c #415A75",
"-  c #445D7A",
";  c #44627B",
":  c #49647C",
">  c #4B697E",
",  c #476581",
"<  c #4A6680",
"1  c #4D6C83",
"2  c #516B84",
"3  c #566F89",
"4  c #4D7185",
"5  c #517187",
"6  c #54748A",
"7  c #59758B",
"8  c #567C8D",
"9  c #5B7A8D",
"0  c #5C7C92",
"q  c #5C8293",
"w  c #648394",
"e  c #628995",
"r  c #618698",
"t  c #6A8799",
"y  c #658D9C",
"u  c #6C8D9B",
"i  c #718D9A",
"p  c #6B939D",
"a  c #71939D",
"s  c #6C94A2",
"d  c #6F98A3",
"f  c #7592A1",
"g  c #7894A2",
"h  c #739BA4",
"j  c #749EA9",
"k  c #7F9FA9",
"l  c #75A1A6",
"z  c #75A1A9",
"x  c #7BA3AB",
"c  c #7EA9AE",
"v  c #7DABB0",
"b  c #819BA7",
"n  c #839FAB",
"m  c #83A2AB",
"M  c #8AA4AE",
"N  c #85ABAD",
"B  c #88ADAF",
"V  c #84AEB2",
"C  c #8DABB3",
"Z  c #93ADB5",
"A  c #85B0B4",
"S  c #8CB3B5",
"D  c #8BB5B8",
"F  c #8EB8BA",
"G  c #94B3B4",
"H  c #9DB9B7",
"J  c #95B3BA",
"K  c #9BB3BB",
"L  c #95BBBC",
"P  c #9BBCBC",
"I  c #A2BDBC",
"U  c #A4C0BE",
"Y  c #A9C4BF",
"T  c #A4BDC3",
"R  c #9EC1C1",
"E  c #A4C3C3",
"W  c #AAC4C3",
"Q  c #ADC9C5",
"!  c #A6C2C8",
"~  c #ADC5C9",
"^  c #B2CCC6",
"/  c #B2CCCA",
"(  c #BCD1CF",
")  c #B6CFD1",
"_  c #B8CDD0",
"`  c #B7D0D2",
"'  c #BCD2D4",
"]  c #C1D4D5",
"[  c #C5D8D7",
"{  c #C1D6D9",
"}  c #C4D9DA",
"|  c #CADDDE",
" . c #CDE1E1",
".. c #D3E4E3",
"X. c #D8E7E4",
"o. c #DAE9E7",
"O. c #D7E7E8",
"+. c #DCEBE9",
"@. c #E1EEEC",
"#. c #E4F0EE",
"$. c white",
/* pixels */
"                                                                ",
"                          $.$.$.$.$.$.                          ",
"                        $.7 w w u p g $.                        ",
"                      $.7 G I U Z G G m $.                      ",
"                    $.5 G U Q G H I U I B $.                    ",
"                  $.; p I ^ ( ] U Y Y Y U B $.                  ",
"                $.& q a N ( [ |  .Y ^ ^ X.X.B $.                ",
"                $.; e h N G I Y Y ^ ^ ^ o.o.S $.                ",
"              $.* 8 q l B G U Y Y ^ #.#.+.+.o.A $.              ",
"              $.; 8 p l ' | ..+.#.@.@.#.#.+.Q D $.              ",
"            $.$ 4 q E / }  .X.+.#.#.#.#./ / Q Q V $.            ",
"            $.* 4 J E ` } S P E ^ ^ ^ ^ / ^ Q Y A $.            ",
"          $.O 1 x J ! ` c S P E Q ^ ^ ^ / / E E G x $.          ",
"          $.O u m L E z c S L +.@.@.#.#.#.Q E I F x $.          ",
"          $.+ u m L s z c  ...O.+.#.@.@.+.+.X.P S j $.          ",
"          $.+ u m q p j {  ...O.+.E E R +.+.X...C h $.          ",
"        $.o 7 i x q s ) ' |  .F L R R R E P ..| V l 0 $.        ",
"        $.. 7 u 8 q y ~ ` } A D F L L L L L J } ] h 6 $.        ",
"        $.. 2 w 3 0 J T ) ' v A F  .O. .D C V ] _ f 6 $.        ",
"        $.. 2 0 4 8 C T T j v v }  . .v V V x / ~ r 1 $.        ",
"        $.X 1 - , 3 n Z T s j z ' ' N c z z h ~ T 8 , $.        ",
"        $.. - = : 1 f m Z y s s / ) z j d d y T J 0 : $.        ",
"          $.+ % - : t g n q r r R T W T p y I J C - $.          ",
"          $.o % = , 0 t f 7 8 0 q J K K J J Z M 6 & $.          ",
"          $.X @ @ = 6 0 w 1 2 6 7 9 M M m m b 6 1 $ $.          ",
"            $.X @ % % 2 7 0 < 1 2 > 2 a a i > > + $.            ",
"              $.o + % - 2 2 3 - ; : : > : : ; + $.              ",
"                $.X o + = - 2 2 5 = = = = = o $.                ",
"                  $.X X X = = = = : : o X X $.                  ",
"                    $.$.$.. . X X X X $.$.$.                    ",
"                          $.$.$.$.$.$.                          ",
"                                                                "
};
