/* XPM */
static char *d9beba46b6c7443187fa6723fe5f1b7fCKRd6BKvNZ73AohT[] = {
/* columns rows colors chars-per-pixel */
"32 32 140 2 ",
"   c None",
".  c #523B23",
"X  c #574127",
"o  c #5E4526",
"O  c #5D462B",
"+  c #644B2B",
"@  c #694F2F",
"#  c #634D30",
"$  c #655035",
"%  c #6B5333",
"&  c #6E5738",
"*  c #735937",
"=  c #725A3C",
"-  c #7A5E3F",
";  c #78603F",
":  c #765D40",
">  c #7C6344",
",  c #7D6648",
"<  c #816546",
"1  c #82674A",
"2  c #846A4B",
"3  c #896C4E",
"4  c #8C724F",
"5  c #876E50",
"6  c #8C7454",
"7  c #8E7959",
"8  c #907757",
"9  c #967E57",
"0  c #997F57",
"q  c #937D5C",
"w  c #97815D",
"e  c #99815D",
"r  c #978160",
"t  c #998565",
"y  c #9C8863",
"u  c #9F8C6B",
"i  c #A28D65",
"p  c #A18E6A",
"a  c #A5926D",
"s  c #A8936F",
"d  c #A59372",
"f  c #A99574",
"g  c #AC9A75",
"h  c #A89778",
"j  c #AC9B7B",
"k  c #B19F7E",
"l  c #B3A27E",
"z  c #AC9E80",
"x  c #B19F82",
"c  c #B3A384",
"v  c #B8A685",
"b  c #BCAD86",
"n  c #B6A689",
"m  c #B8A78B",
"M  c #B6A98A",
"N  c #BBAB8C",
"B  c #BFB18F",
"V  c #BDAE91",
"C  c #BFB295",
"Z  c #C3AF94",
"A  c #C1B394",
"S  c #C3B59A",
"D  c #C6B99D",
"F  c #C8BB9C",
"G  c #C5B6A0",
"H  c #C7BBA2",
"J  c #CABEA3",
"K  c #CDC1A6",
"L  c #CEC2AA",
"P  c #D1C5AD",
"I  c #D3C8AE",
"U  c #D2C7B0",
"Y  c #D5CAB3",
"T  c #D4CAB3",
"R  c #D5C9B1",
"E  c #D6CBB4",
"W  c #D7CDB5",
"Q  c #D7CEB5",
"!  c #D7CEB7",
"~  c #D4C9B1",
"^  c #D9CDB6",
"/  c #D8CDB6",
"(  c #D8CFB6",
")  c #D9CDB7",
"_  c #D6CEBA",
"`  c #D9CDB9",
"'  c #D9CEB9",
"]  c #D9CFB9",
"[  c #DACEB8",
"{  c #D8CEBA",
"}  c #D8CFBB",
"|  c #DACFBA",
" . c #D9D0B8",
".. c #DAD1B9",
"X. c #D8D1BA",
"o. c #D9D1BB",
"O. c #DAD0BA",
"+. c #DBD1BA",
"@. c #DBD3BB",
"#. c #DCD2B9",
"$. c #DCD2BB",
"%. c #DDD2BB",
"&. c #DBD3BD",
"*. c #DBD1BE",
"=. c #DCD3BD",
"-. c #DCD3BE",
";. c #DED3BE",
":. c #DED3BF",
">. c #DBD4BF",
",. c #DDD5BD",
"<. c #DED5BD",
"1. c #DFD5BE",
"2. c #DED6BE",
"3. c #DED7BF",
"4. c #DBD2BC",
"5. c #DDD4C0",
"6. c #DED5C0",
"7. c #DFD5C0",
"8. c #DFD6C1",
"9. c #DFD7C1",
"0. c #DED5C2",
"q. c #DFD7C5",
"w. c #DFD5C1",
"e. c #DED8C3",
"r. c #E0D7C0",
"t. c #E0D6C1",
"y. c #E0D7C1",
"u. c #E0D7C2",
"i. c #E0D8C3",
"p. c #E1D8C3",
"a. c #E0D8C4",
"s. c #E0D8C5",
"d. c #E2D9C5",
"f. c #E3DAC5",
"g. c #E2D9C6",
"h. c #E2DAC6",
"j. c #E2DCC7",
"k. c #E3DCC8",
"l. c white",
"z. c white",
/* pixels */
"                                                                ",
"                  l.l.l.l.l.l.l.l.l.l.                          ",
"      l.l.l.l.l.l.q 7 t r f a j k c c l.                        ",
"    l.: > > 1 , 6 c N N F F L I W Y X.A l.                      ",
"      l.: p d k k Z b F D I I / W @.%.;.A l.                    ",
"        z.> g g v M S S P P X.E 3.@.p.<.y.b l.                  ",
"          l.2 k l A Z K J / R 2.%.f.<.f.5.A l.                  ",
"            l.5 M M F F R P %./ p.<.k.y.k.b l.                  ",
"            l.6 8 j a L K X.I y.X.h.2.h.;.y.l l.                ",
"              l.l.l.l.f E L *.Y p.X.h.;.5.X.b l.                ",
"                  l.q U J } I 5.W p.[ 5./ X.g l.                ",
"                l.q S V U J _ I 2.R 5.R X.I k l.                ",
"                l.t j G C ~ K _ L [ P Y L P g l.                ",
"                l.> c x G A L G U J L J L G j l.                ",
"                l.2 u M n G A L D K G J D D a l.                ",
"                l.* a f N n D V D C D C C m g l.  l.l.l.        ",
"                z.> r h h V m C m C n V c M p l.l.J V J l.      ",
"                z.% t u z z m x m c n j c a j c G L 5.U J l.    ",
"                  l.> u d j h x j z h d u L J _ ~ q.R q.L S l.  ",
"                  l.= t d d g d h q t D U J ;.I q.U q.K _ f l.  ",
"                  l.% r t u u q 7 D F ~ K *.P 2.K ;.J I N c l.  ",
"                  l.% q e 7 6 N D S R J *.K *.J / S K n f l.    ",
"                  l.@ 7 > N b S C I H X.J ( D I V S l p l.      ",
"                    l.% 6 > A Z L D R F I B J c m s w l.        ",
"                    l.+ 5 3 & S Z K Z J x Z f g 4 8 l.          ",
"                    l.+ 3 > 2 % A l A g v i i 1 l.l.            ",
"                      l.$ < ; < o j i a 9 0 > l.                ",
"                      l.o < > * + e 0 5 = + l.                  ",
"                        l.# - - X 6 2 $ l.l.                    ",
"                          l.O . . . X l.                        ",
"                            l.l.l.l.l.                          ",
"                                                                "
};
