/* XPM */
static char *_887c7e695bd4f8fdd688e47713b9a4cthKqogRKMebeye8o[] = {
/* columns rows colors chars-per-pixel */
"32 32 133 2 ",
"   c None",
".  c #090A12",
"X  c #0C0C10",
"o  c #0B0D15",
"O  c #0B0C1A",
"+  c #0F101F",
"@  c #111117",
"#  c #1F1315",
"$  c #10101A",
"%  c #16141B",
"&  c #10101C",
"*  c #15151F",
"=  c #20151A",
"-  c #0E0E22",
";  c #0E0F25",
":  c #131324",
">  c #1B1B26",
",  c #1C1C27",
"<  c #111229",
"1  c #1D1D28",
"2  c #05043D",
"3  c #06053C",
"4  c #1D1D33",
"5  c #15173A",
"6  c #241E22",
"7  c #22212A",
"8  c #20202C",
"9  c #21212E",
"0  c #22222F",
"q  c #232330",
"w  c #242430",
"e  c #242431",
"r  c #242432",
"t  c #282837",
"y  c #2A2A39",
"u  c #2E2E3E",
"i  c #2F2F3F",
"p  c #3E3236",
"a  c #56141F",
"s  c #6D1927",
"d  c #56473E",
"f  c #0D0747",
"g  c #0F084A",
"h  c #1B1D43",
"j  c #181A4A",
"k  c #140855",
"l  c #170A55",
"z  c #170B55",
"x  c #1C1F50",
"c  c #1C1F5B",
"v  c #251A4B",
"b  c #1E2042",
"n  c #1E2045",
"m  c #1D204C",
"M  c #1F2153",
"N  c #1E2158",
"B  c #1D205A",
"V  c #2C2C41",
"C  c #2F2F44",
"Z  c #25274E",
"A  c #2A2B4A",
"S  c #342F46",
"D  c #34244C",
"F  c #313141",
"G  c #323243",
"H  c #252758",
"J  c #2F2B5C",
"K  c #262967",
"L  c #25286A",
"P  c #323662",
"I  c #202571",
"U  c #232770",
"Y  c #212672",
"T  c #232772",
"R  c #272C71",
"E  c #242874",
"W  c #262A76",
"Q  c #282C70",
"!  c #2B2F73",
"~  c #252978",
"^  c #282D7F",
"/  c #2A2E7F",
"(  c #522D54",
")  c #43434F",
"_  c #515158",
"`  c #6B4D48",
"'  c #6F4E54",
"]  c #54446A",
"[  c #624D6B",
"{  c #7C5D63",
"}  c #65656D",
"|  c #65656E",
" . c #686870",
".. c #6D6D76",
"X. c #73737C",
"o. c #76767F",
"O. c #8B101E",
"+. c #8C1C2D",
"@. c #941924",
"#. c #95323B",
"$. c #86443B",
"%. c #A23A47",
"&. c #AF3D4B",
"*. c #9F414D",
"=. c #8F4F55",
"-. c #BF4756",
";. c #816556",
":. c #A77455",
">. c #B75C68",
",. c #AF815F",
"<. c #2A2F82",
"1. c #2B3084",
"2. c #2C3186",
"3. c #2E338A",
"4. c #30348C",
"5. c #2F3590",
"6. c #313690",
"7. c #323790",
"8. c #333892",
"9. c #343994",
"0. c #797981",
"q. c #7F7F88",
"w. c #81818B",
"e. c #878790",
"r. c #898992",
"t. c #898994",
"y. c #8C8C95",
"u. c #8C8C96",
"i. c #8D8D99",
"p. c #90909A",
"a. c #90909B",
"s. c #91919B",
"d. c #9898A3",
/* pixels */
"                                                                ",
"                                                                ",
"                                                                ",
"                                                                ",
"                                        *                       ",
"                                        p *.                    ",
"                                        o a s +.                ",
"                                        = =.>.%.                ",
"                                      5 = #.-.&.                ",
"                              G G F S Q G $.@.O.                ",
"                            u r r r 1 H L 6 (                   ",
"                          u 9 >   4 Z W <.x Q P                 ",
"                          y *     I I / / N L A                 ",
"                          7 d ;.  { ] N h M Z 9 F               ",
"                    z z z D ,.' v :.` + t V q 1 q               ",
"        3 g g g g f 3   2         [ J O @ 1 , ,                 ",
"                                  5.6.Q m n                     ",
"                                  8.8.9.3.                      ",
"                                6.6.8.8.<.                      ",
"                                E 3.6.4.~                       ",
"                                ; j U U B                       ",
"                                X & < - .                       ",
"                                X.) : $                         ",
"                          i.y.d.y.0.} _                         ",
"                        a...w.r.e.                              ",
"                        a.a.y.                                  ",
"                        } w.                                    ",
"                         .X.                                    ",
"                                                                ",
"                                                                ",
"                                                                ",
"                                                                "
};
