/* XPM */
static char *dc575336701a40efa67aa3c61aaeb81fYL8uCEpkuHW2LAq7[] = {
/* columns rows colors chars-per-pixel */
"32 32 166 2 ",
"   c None",
".  c #07070B",
"X  c #07070C",
"o  c #08080C",
"O  c #09090E",
"+  c #0A0A10",
"@  c #0A0A11",
"#  c #0B0B13",
"$  c #0D0B13",
"%  c #0B0B17",
"&  c #0F0F15",
"*  c #0C0C17",
"=  c #0D0D17",
"-  c #0C0C19",
";  c #101018",
":  c #111118",
">  c #10101F",
",  c #341A19",
"<  c #0D0E23",
"1  c #0F0F22",
"2  c #0F112A",
"3  c #111121",
"4  c #121221",
"5  c #121222",
"6  c #171722",
"7  c #131324",
"8  c #181823",
"9  c #1E1C22",
"0  c #1C1C27",
"q  c #101128",
"w  c #16162C",
"e  c #1D1D28",
"r  c #1E1E29",
"t  c #1E1E2A",
"y  c #1F1F2A",
"u  c #19182C",
"i  c #1D1E2E",
"p  c #030438",
"a  c #06053D",
"s  c #07053E",
"d  c #08053F",
"f  c #111330",
"g  c #121436",
"h  c #151736",
"j  c #161836",
"k  c #191930",
"l  c #191931",
"z  c #1A1A33",
"x  c #1B1B34",
"c  c #1C1C38",
"v  c #1D1D3A",
"b  c #2D1B20",
"n  c #252026",
"m  c #2F2822",
"M  c #20202C",
"N  c #21212C",
"B  c #22222F",
"V  c #23232F",
"C  c #242437",
"Z  c #2B2438",
"A  c #2A2A39",
"S  c #28283A",
"D  c #2B2B3E",
"F  c #2E2E3E",
"G  c #2F2F3F",
"H  c #6E1B29",
"J  c #691E2A",
"K  c #42323A",
"L  c #4D343A",
"P  c #784139",
"I  c #0E074A",
"U  c #0F084A",
"Y  c #10084B",
"T  c #161842",
"R  c #1B1F4D",
"E  c #150A51",
"W  c #170B55",
"Q  c #180B55",
"!  c #1B1E51",
"~  c #1C1F51",
"^  c #24184A",
"/  c #211D57",
"(  c #1E204C",
")  c #1D2055",
"_  c #1F2257",
"`  c #1D215C",
"'  c #232440",
"]  c #22244E",
"[  c #303040",
"{  c #323243",
"}  c #31324F",
"|  c #3B354B",
" . c #292B53",
".. c #20235D",
"X. c #24265C",
"o. c #202362",
"O. c #212565",
"+. c #262967",
"@. c #21256C",
"#. c #23266D",
"$. c #21256E",
"%. c #2A2E6D",
"&. c #3B306E",
"*. c #222774",
"=. c #252874",
"-. c #242876",
";. c #252976",
":. c #242877",
">. c #2F2E72",
",. c #2B2C74",
"<. c #292D76",
"1. c #2A2E79",
"2. c #2C3178",
"3. c #363372",
"4. c #583F5E",
"5. c #46464D",
"6. c #5E464C",
"7. c #474752",
"8. c #6C4D52",
"9. c #62626A",
"0. c #6A6A73",
"q. c #74747C",
"w. c #891A29",
"e. c #971B2B",
"r. c #9D2C36",
"t. c #9F2A38",
"y. c #9D313E",
"u. c #AC2939",
"i. c #876B55",
"p. c #91675B",
"a. c #A2725A",
"s. c #A97758",
"d. c #BC5B66",
"f. c #886661",
"g. c #B36A71",
"h. c #282D81",
"j. c #292E80",
"k. c #2A2F82",
"l. c #2A2F83",
"z. c #2D3288",
"x. c #2E3288",
"c. c #2E338A",
"v. c #2F338A",
"b. c #32368D",
"n. c #30358F",
"m. c #313690",
"M. c #333892",
"N. c #333893",
"B. c #343994",
"V. c #505389",
"C. c #6E6F8D",
"Z. c #777781",
"A. c #7D7D86",
"S. c #7F7F89",
"D. c #84848D",
"F. c #868690",
"G. c #898992",
"H. c #8A8A93",
"J. c #8B8B94",
"K. c #8B8B95",
"L. c #8D8D98",
"P. c #90909B",
"I. c #92929D",
"U. c #9797A2",
"Y. c #9A9AA4",
"T. c #9A9AA7",
/* pixels */
"                                                                ",
"                                                                ",
"                                                                ",
"                                            n                   ",
"                                            L y.                ",
"                                            $ J H e.            ",
"                                            , g.d.              ",
"                                          R b r.u.t.            ",
"                                { F [ [ D %.| P w.              ",
"                                S B e e i +.O.u &.              ",
"                              F b 7   ( ..j.z._ 2.}             ",
"                                e m   3.,.;.o.R X.S             ",
"                              Z i.f.7.a.6.j '  .C B F           ",
"            p E Q W W W Y U I ^ s.8./ p.K + B B e 0             ",
"              s d d d s           >.1.>.#.2 : 0 0               ",
"                                  *.:.z.n.~ O                   ",
"                                *.:.z.N.B.1.* .                 ",
"                              q q #.n.N.B.n.h . O               ",
"                            > k 7 T j.M.m.z.) * *               ",
"                          x v v z - ~ h.<.] 1 w 3               ",
"                          7 x 3 % <   V.C.q.7.8                 ",
"                          & + : g     Y.K.G.                    ",
"                          0.5.    T.Z.S.                        ",
"                        U.K.      L.                            ",
"                      I.G.        P.                            ",
"                    A.F.                                        ",
"                    9.D.                                        ",
"                                                                ",
"                                                                ",
"                                                                ",
"                                                                ",
"                                                                "
};
