/* XPM */
static char *_d06d2263ff94c98dd2db301158b3007CZ8rVYkAE67gty9w[] = {
/* columns rows colors chars-per-pixel */
"32 32 89 1 ",
"  c None",
". c #493522",
"X c #4C3925",
"o c #4D3B29",
"O c #513B2A",
"+ c #55452D",
"@ c #5A4534",
"# c #5C4A35",
"$ c #5E4C38",
"% c #624E3B",
"& c #64513B",
"* c #665542",
"= c #6B5742",
"- c #6D5943",
"; c #6C5B4B",
": c #725943",
"> c #735D48",
", c #74614D",
"< c #7A634D",
"1 c #766553",
"2 c #786753",
"3 c #776854",
"4 c #7C6A56",
"5 c #826B55",
"6 c #836E59",
"7 c #81715F",
"8 c #89735B",
"9 c #847463",
"0 c #897764",
"q c #8B7965",
"w c #8C7C69",
"e c #927C64",
"r c #937E68",
"t c #8F816D",
"y c #93826D",
"u c #99866E",
"i c #948571",
"p c #9D8771",
"a c #968874",
"s c #9B8C76",
"d c #9B8E7A",
"f c #9E927D",
"g c #A08D76",
"h c #A38F79",
"j c #A3947D",
"k c #A8957E",
"l c #9E9380",
"z c #A39682",
"x c #AA9781",
"c c #A69985",
"v c #AB9B85",
"b c #A19788",
"n c #A49D8D",
"m c #AA9D8A",
"M c #B19C85",
"N c #B39F89",
"B c #ADA18C",
"V c #B1A48E",
"C c #ADA494",
"Z c #B3A692",
"A c #B6AA95",
"S c #B8AD97",
"D c #B2A798",
"F c #B6AB99",
"G c #B9AE9A",
"H c #B7B09E",
"J c #BCB19D",
"K c #BEB4A2",
"L c #BFB7A8",
"P c #C1B6A5",
"I c #C1B7AA",
"U c #C5BBAC",
"Y c #C8BFAE",
"T c #C9BEB0",
"R c #CBC2B4",
"E c #CEC5B8",
"W c #D0C6B7",
"Q c #D0C6B8",
"! c #D2CABB",
"~ c #D5CDC0",
"^ c #DBD3C4",
"/ c #DED6C9",
"( c #E0D6C3",
") c #E0D7CA",
"_ c #E3DACC",
"` c #E7DED1",
"' c #E7E0D1",
"] c #E9E2D4",
"[ c white",
/* pixels */
"                                ",
"                                ",
"                                ",
"                  [[[[[         ",
"                 [JJJJK[        ",
"              [[[J]]]](P[[      ",
"             [SJJ)WW!]_^PP[     ",
"            [J!^^WW!!]()^^P[    ",
"           [G!RWWWW!E!`)^/^P[   ",
"          [A!RRRhxMQ!!!]``/^K[  ",
"         [VEJPeugkvN!!!!]`)/!J[ ",
"        [vYJP88WE!kv!EQ!]_)^~S[ ",
"       [jvUJ<RWPRR!kWW!!]_)(^A[ ",
"     [[dKPFJ>RP8UYphWjE!]'`_!B[ ",
"    [wyHmCZS=<PR8qrEYuW)PPKG(s[ ",
"   [,DFzmBZAL&>KURRYeR)PPJGFZr[ ",
"  [*ndllvmZAZP=:><55U^KJJSAZm6[ ",
"  [*bddlcmmVZZTRRRRR^JJJSZVmc<[ ",
"  [%,lllzcmVZASGPPII~JAZZBmz=[  ",
" [o;;3nCCzmmNVZKPPKK!BmBmczd%[  ",
" [X;;,334DccmBZUTTTRmmzzajs4[   ",
" [X;;,,344DKHKKiipmczjdsuya<[   ",
" [XXoo,,1344wriwyyzffsaitw,[    ",
"  [.XX+#$,140wwwwddsaitww-[     ",
"   [.Xo##$%-9000qaittwwq-[      ",
"    [[.#@#$%$&96tywwwq0=[       ",
"      [.....XXOO+wq099%[        ",
"       [[[[[[[[[[@@@@#[         ",
"                 [[[[[          ",
"                                ",
"                                ",
"                                "
};
