/* XPM */
static char *e38f8142caa845ceb4526ceed60d3dcamlp7Cka7j2hfr7Zr[] = {
/* columns rows colors chars-per-pixel */
"20 28 135 2 ",
"   c None",
".  c #030D34",
"X  c #041136",
"o  c #02163C",
"O  c #04193E",
"+  c #0D1A3F",
"@  c #141B3F",
"#  c #1D1B3E",
"$  c #201C3F",
"%  c #411C39",
"&  c #4F223E",
"*  c #59213B",
"=  c #73243B",
"-  c #78263C",
";  c #041D44",
":  c #041F48",
">  c #2B1F40",
",  c #04234C",
"<  c #08254D",
"1  c #052A4E",
"2  c #182347",
"3  c #12254B",
"4  c #132C4F",
"5  c #012652",
"6  c #042B53",
"7  c #022C5A",
"8  c #04315E",
"9  c #063D5F",
"0  c #25274D",
"q  c #312547",
"w  c #312E52",
"e  c #253859",
"r  c #283B5B",
"t  c #343256",
"y  c #033464",
"u  c #043866",
"i  c #033769",
"p  c #03396B",
"a  c #0C3B6C",
"s  c #143663",
"d  c #1E3663",
"f  c #033F72",
"g  c #5A3658",
"h  c #064364",
"j  c #074E6D",
"k  c #044172",
"l  c #054B7D",
"z  c #075473",
"x  c #075877",
"c  c #085E7B",
"v  c #334563",
"b  c #08627E",
"n  c #4A5975",
"m  c #89273B",
"M  c #8F283C",
"N  c #A52737",
"B  c #AB2736",
"V  c #A22B3C",
"C  c #BA2734",
"Z  c #B22837",
"A  c #BF2A37",
"S  c #BB2C3A",
"D  c #C52B37",
"F  c #C02D3A",
"G  c #D52F39",
"H  c #CF303B",
"J  c #D3313C",
"K  c #DF323B",
"L  c #E33139",
"P  c #EA333B",
"I  c #F2343B",
"U  c #044F84",
"Y  c #055187",
"T  c #045289",
"R  c #045D96",
"E  c #055E98",
"W  c #086683",
"Q  c #086D89",
"!  c #076990",
"~  c #04649F",
"^  c #097B94",
"/  c #097E98",
"(  c #0567A0",
")  c #0568A4",
"_  c #056CA9",
"`  c #0374B2",
"'  c #0478B7",
"]  c #057CBC",
"[  c #257CB7",
"{  c #3679B0",
"}  c #66788F",
"|  c #02829A",
" . c #0A8CA4",
".. c #1192A9",
"X. c #2582BE",
"o. c #2E80B9",
"O. c #0BA1B6",
"+. c #0BA3B8",
"@. c #0BA9BD",
"#. c #0684C5",
"$. c #068ACC",
"%. c #0E8CCD",
"&. c #168CCC",
"*. c #1A8AC9",
"=. c #068FD2",
"-. c #0691D5",
";. c #0A93D7",
":. c #0696DB",
">. c #0598DE",
",. c #0BA9C0",
"<. c #0CBBCF",
"1. c #0BB2D2",
"2. c #069BE1",
"3. c #08A5E0",
"4. c #08ADE4",
"5. c #08B3ED",
"6. c #0ECDDA",
"7. c #0CC7E3",
"8. c #0CCEEE",
"9. c #0DD3E2",
"0. c #0EDCEB",
"q. c #0BCFF3",
"w. c #0CD5F4",
"e. c #0BD9F5",
"r. c #0DDEF9",
"t. c #0EE1EF",
"y. c #0EE3F3",
"u. c #0FEAF7",
"i. c #0FEFFB",
"p. c #0FF2FD",
"a. c #0FF9FF",
"s. c #10FAFF",
"d. c #A6AEBB",
"f. c #B5BDC7",
"g. c #EAEDF0",
/* pixels */
"                X . . .                 ",
"              l Y ! / / Q               ",
"          < 5 ] 5.y.s.s.9.W W           ",
"        , i y E 7.p.i.i.p.p.y.c         ",
"      , p p ; . +.p.p.p.p.p.i.u.z       ",
"    ; y p i 7 , @.a.y.9.9.0.i.i.u.h     ",
"    3 ; u f #.=.8.p...4 4 h 0.i.i.j     ",
"  n f.; , #.-.:.e.| } g.d.O h y.i.t.z   ",
"  3 r O , $.:.:.e.^ 2 v e O 1 t.i.p.z   ",
"  O o O , $.:.:.e.^ . o o o 1 t.p.p.z   ",
"  O O O 8 $.:.:.4.1.Y X X 1 @.u.i.p.z   ",
"  : 7 6 k -.:.:.-.q.6. . .O.p.p.p.s.z   ",
"  , 7 p p ) :.>.>.4.y.a.a.p.p.i.i.+.h   ",
"    : p p i ~ ~ #.:.4.8.e.p.p.p.i.9     ",
"    : y p p u 8 ` 2.:.:.3.e.e.e.<.h     ",
"      ; p p ] :.>.:.:.:.:.;.X.[ <       ",
"      : s i i ' =.=.%.*.&.{ F S #       ",
"      # N d a a a f g A S F L G #       ",
"      $ G Z B B B B D P L L H > ;       ",
"      $ L L L L K L P P S w [ ' ,       ",
"        & J P P P I V % t ' :.:.6       ",
"        + H I I M * q f ` >.-.R ,       ",
"        @ J m = 0 5 7 R 3.2.-.u ;       ",
"        + - 3 5 y T E ( _ _ ) ~ ,       ",
"        , 5 u p i E =.#.T T R $.<       ",
"      , i p p p y 7 Y #.>.>.>.;.k       ",
"    : p p p p u , ; o k $.:.:.:.:.8     ",
"    : p p p p ,         p :.:.:.:.8     "
};
