/* XPM */
static char *a9f09c5279b44c10f2b08cad00f94191THy1h9Md233uxEA8[] = {
/* columns rows colors chars-per-pixel */
"32 32 10 1 ",
"  c None",
". c #181818",
"X c #2C253E",
"o c #5A2818",
"O c #453F60",
"+ c #9B3C1B",
"@ c #945816",
"# c #DC6831",
"$ c #CD9217",
"% c #E1CD4E",
/* pixels */
"                                ",
"                                ",
"                                ",
"                                ",
"                                ",
"                                ",
"                                ",
"           .+++o@@              ",
"           oooo$++.             ",
"           oo%%$+##..           ",
"           ..%%$o####+          ",
"            .%$@.o+##+          ",
"            .$$@@.o++           ",
"            .@$$@....           ",
"        ... .XO@@...   ..       ",
"       .$$$@@OOOX.XX. .@.       ",
"      .$%%%$$OOO..X@@.@@.       ",
"     .$$$%%%$OOX..@@@@@@.       ",
"     .$..$%%@XX. ..@@@@.        ",
"     ..  ..@@X.    ..@@.        ",
"           ...       ..         ",
"                                ",
"                                ",
"                                ",
"                                ",
"                                ",
"          .............         ",
"       ...........              ",
"                                ",
"                                ",
"                                ",
"                                "
};
